<svg id="Capa_1" enable-background="new 0 0 511.999 511.999" height="512" viewBox="0 0 511.999 511.999" width="512" xmlns="http://www.w3.org/2000/svg"><g><path d="m458.207 130.269h-157.539v-92.652c0-20.742-16.957-37.617-37.8-37.617h-209.069c-20.842 0-37.799 16.875-37.799 37.617v42.903c0 4.143 3.358 7.5 7.5 7.5s7.5-3.357 7.5-7.5v-42.903c0-12.471 10.228-22.617 22.799-22.617h209.069c12.572 0 22.8 10.146 22.8 22.617v121.43c0 12.471-10.228 22.617-22.8 22.617h-43.96c-.026 0-.051-.004-.077-.004s-.051.004-.077.004h-79.058c-1.49 0-2.945.443-4.182 1.274l-60.705 40.768 8.491-32.654c.584-2.247.095-4.639-1.326-6.476s-3.611-2.912-5.933-2.912h-22.242c-12.572 0-22.8-10.146-22.8-22.617v-48.999c0-4.143-3.358-7.5-7.5-7.5s-7.5 3.357-7.5 7.5v48.999c0 20.742 16.957 37.617 37.8 37.617h12.542l-6.092 23.43c-1.571 6.043.71 12.285 5.812 15.902 2.619 1.858 5.644 2.789 8.673 2.789 2.903 0 5.81-.855 8.365-2.572l58.882-39.549h69.351v76.55h-157.536c-20.839 0-37.793 16.872-37.793 37.611v121.435c0 20.738 16.954 37.61 37.793 37.61h12.544l-6.095 23.437c-1.568 6.045.718 12.289 5.825 15.907 2.619 1.855 5.642 2.785 8.669 2.785 2.902 0 5.808-.855 8.36-2.571l58.886-39.558h62.773c4.142 0 7.5-3.357 7.5-7.5s-3.358-7.5-7.5-7.5h-65.058c-1.49 0-2.946.443-4.182 1.274l-60.715 40.78 8.496-32.667c.584-2.247.095-4.639-1.325-6.476s-3.611-2.912-5.933-2.912h-22.245c-12.568 0-22.793-10.143-22.793-22.61v-121.434c0-12.468 10.225-22.611 22.793-22.611h157.535v1.1c0 20.739 16.959 37.611 37.805 37.611h36.536v105.334c0 12.468-10.23 22.611-22.805 22.611h-27.464c-4.142 0-7.5 3.357-7.5 7.5s3.358 7.5 7.5 7.5h27.464c20.846 0 37.805-16.872 37.805-37.611v-105.334h69.346l58.885 39.556c2.554 1.717 5.459 2.572 8.363 2.572 3.026 0 6.05-.93 8.668-2.785 5.106-3.618 7.392-9.861 5.823-15.911l-6.094-23.432h12.544c20.839 0 37.793-16.872 37.793-37.611v-121.435c0-20.738-16.955-37.61-37.793-37.61zm22.793 159.044c0 12.468-10.225 22.611-22.793 22.611h-22.244c-2.322 0-4.513 1.075-5.933 2.912s-1.91 4.229-1.325 6.476l8.494 32.67-60.713-40.783c-1.236-.831-2.692-1.274-4.182-1.274h-123.168c-12.575 0-22.805-10.144-22.805-22.611v-92.649h36.538c20.843 0 37.8-16.875 37.8-37.617v-13.778h157.538c12.568 0 22.793 10.143 22.793 22.61z"/><path d="m70.224 73.301h172.138c4.142 0 7.5-3.357 7.5-7.5s-3.358-7.5-7.5-7.5h-172.138c-4.142 0-7.5 3.357-7.5 7.5s3.358 7.5 7.5 7.5z"/><path d="m70.224 114.801h109.161c4.142 0 7.5-3.357 7.5-7.5s-3.358-7.5-7.5-7.5h-109.161c-4.142 0-7.5 3.357-7.5 7.5s3.358 7.5 7.5 7.5z"/><path d="m378.864 219.69h-109.16c-4.142 0-7.5 3.357-7.5 7.5s3.358 7.5 7.5 7.5h109.16c4.142 0 7.5-3.357 7.5-7.5s-3.358-7.5-7.5-7.5z"/><path d="m338.956 260.038h-69.252c-4.142 0-7.5 3.357-7.5 7.5s3.358 7.5 7.5 7.5h69.252c4.142 0 7.5-3.357 7.5-7.5s-3.358-7.5-7.5-7.5z"/><path d="m63.265 390.317h172.138c4.142 0 7.5-3.357 7.5-7.5s-3.358-7.5-7.5-7.5h-172.138c-4.142 0-7.5 3.357-7.5 7.5s3.358 7.5 7.5 7.5z"/><path d="m63.265 348.816h109.161c4.142 0 7.5-3.357 7.5-7.5s-3.358-7.5-7.5-7.5h-109.161c-4.142 0-7.5 3.357-7.5 7.5s3.358 7.5 7.5 7.5z"/></g></svg>